<svg width="347" height="353" viewBox="0 0 347 353" fill="none" xmlns="http://www.w3.org/2000/svg">
<path fill-rule="evenodd" clip-rule="evenodd" d="M0 16C0 7.16345 7.16344 0 16 0H304C312.837 0 320 7.16344 320 16V80C320 88.8366 312.837 96 304 96H16C7.16345 96 0 88.8366 0 80V16ZM0 128C0 119.163 7.16344 112 16 112H304C312.837 112 320 119.163 320 128V192C320 192.204 319.996 192.407 319.989 192.608C304.606 182.127 286.018 176 266 176C237.568 176 212.023 188.36 194.445 208H16C7.16345 208 0 200.837 0 192V128ZM182.843 224H16C7.16344 224 0 231.163 0 240V304C0 312.837 7.16345 320 16 320H182.843C174.675 305.88 170 289.486 170 272C170 254.514 174.675 238.12 182.843 224ZM200.748 320C190.849 306.567 185 289.966 185 272C185 254.034 190.849 237.433 200.748 224H304C312.837 224 320 231.163 320 240V304C320 312.837 312.837 320 304 320H200.748ZM312.417 205.61C309.972 207.125 307.088 208 304 208H216.345C230.059 197.345 247.288 191 266 191C283.267 191 299.272 196.403 312.417 205.61Z" fill="#E0E0E0"/>
<circle cx="266" cy="272" r="81" fill="#E0E0E0"/>
<path d="M201 273.301H228.383L247.191 237L266 273.301L283.979 308L301.957 273.301H331" stroke="#BDBDBD" stroke-width="16"/>
</svg>
